<?xml version="1.0" standalone="no"?>

<svg version="1.0" xmlns="http://www.w3.org/2000/svg"
width="32.000000pt" height="32.000000pt" viewBox="0 0 32.000000 32.000000"
preserveAspectRatio="xMidYMid meet">

<g transform="translate(0.000000,32.000000) scale(0.100000,-0.100000)"
fill="#000000" stroke="none">
<path d="M105 294 c-21 -17 -23 -22 -8 -15 36 18 36 13 -1 -23 -50 -47 -52
-103 -5 -151 64 -65 169 -18 169 76 0 35 -6 47 -36 75 -19 19 -29 34 -22 34
19 0 64 -49 73 -78 11 -36 -3 -88 -29 -113 -22 -22 -23 -25 -10 -51 10 -19 11
-29 3 -34 -14 -8 -31 15 -26 36 3 12 -8 15 -53 15 -46 1 -56 -2 -53 -15 4 -19
-13 -47 -24 -37 -4 4 -2 21 4 36 9 25 7 32 -14 53 -32 32 -40 87 -19 130 16
31 16 32 0 17 -9 -10 -18 -37 -21 -60 -4 -36 0 -51 21 -82 19 -28 23 -43 17
-60 -17 -47 20 -67 41 -22 16 36 80 36 96 0 21 -45 58 -25 41 22 -6 17 -2 32
16 59 44 64 25 141 -46 188 -49 33 -76 33 -114 0z m75 4 c0 -16 -17 -44 -23
-38 -3 3 -8 15 -11 28 -6 18 -3 22 13 22 12 0 21 -6 21 -12z m-31 -68 c3 -25
3 -25 -18 -6 -26 23 -27 39 -3 34 9 -2 19 -14 21 -28z m95 -16 c9 -23 8 -24
-26 -24 -30 0 -31 0 -13 20 22 24 31 25 39 4z m-74 -34 c0 -5 -4 -10 -10 -10
-5 0 -10 5 -10 10 0 6 5 10 10 10 6 0 10 -4 10 -10z m-58 -32 c-19 -20 -24
-21 -32 -8 -16 25 -12 30 22 30 l32 0 -22 -22z m94 -47 c-15 -24 -36 -11 -36
21 l0 32 21 -21 c12 -11 18 -26 15 -32z"/>
<path d="M281 258 c7 -13 16 -36 20 -53 6 -25 7 -26 8 -7 1 22 -24 82 -35 82
-2 0 1 -10 7 -22z"/>
<path d="M15 146 c2 -22 12 -47 21 -55 15 -15 15 -14 3 9 -7 14 -16 39 -21 55
-7 26 -7 25 -3 -9z"/>
</g>
</svg>
